<svg xmlns="http://www.w3.org/2000/svg" xmlns:svg="http://www.w3.org/2000/svg" xmlns:xlink="http://www.w3.org/1999/xlink" id="svg2" width="744.094" height="1052.362"><defs id="defs3"><linearGradient id="linearGradient4559" x1="-12.539" x2="-12.539" y1="64.044" y2="81.716" gradientTransform="matrix(1.1003481,0,0,0.9456115,210.11282,43.885511)" gradientUnits="userSpaceOnUse" xlink:href="#XMLID_18_"/><linearGradient id="XMLID_18_" x1="87.684" x2="83.453" y1="110.025" y2="105.794" gradientTransform="translate(77.641,-10.937)" gradientUnits="userSpaceOnUse"><stop style="stop-color:#555" id="stop154" offset="0"/><stop style="stop-color:#4d4d4d" id="stop156" offset=".352"/><stop style="stop-color:#373737" id="stop158" offset=".902"/><stop style="stop-color:#323232" id="stop160" offset="1"/></linearGradient><linearGradient id="linearGradient4557" x1="87.684" x2="83.453" y1="110.025" y2="105.794" gradientTransform="matrix(1.1666666,0,0,1.1666666,95.756716,1.090575)" gradientUnits="userSpaceOnUse" xlink:href="#XMLID_18_"/><linearGradient id="XMLID_16_" x1="63.699" x2="106.288" y1="123.453" y2="80.865" gradientTransform="translate(77.641,-10.937)" gradientUnits="userSpaceOnUse"><stop style="stop-color:#fff" id="stop132" offset="0"/><stop style="stop-color:#f7f7f7" id="stop134" offset=".36"/><stop style="stop-color:#e1e1e1" id="stop136" offset=".921"/><stop style="stop-color:#ddd" id="stop138" offset="1"/></linearGradient><linearGradient id="linearGradient4555" x1="63.699" x2="106.288" y1="123.453" y2="80.865" gradientTransform="translate(110.23172,19.525241)" gradientUnits="userSpaceOnUse" xlink:href="#XMLID_16_"/><radialGradient id="XMLID_15_" cx="85" cy="125" r="76" gradientTransform="translate(77.641,-10.937)" gradientUnits="userSpaceOnUse"><stop style="stop-color:red" id="stop123" offset="0"/><stop style="stop-color:#bf0000" id="stop125" offset=".402"/><stop style="stop-color:#e20800" id="stop127" offset="1"/></radialGradient><radialGradient id="radialGradient4553" cx="85" cy="125" r="76" gradientTransform="translate(110.23172,19.525241)" gradientUnits="userSpaceOnUse" xlink:href="#XMLID_15_"/><radialGradient id="XMLID_14_" cx="82.333" cy="134.334" r="88.001" gradientTransform="translate(77.641,-10.937)" gradientUnits="userSpaceOnUse"><stop style="stop-color:#ddd" id="stop116" offset="0"/><stop id="stop5218" offset=".5" style="stop-color:#fff;stop-opacity:1"/><stop style="stop-color:#dcdcdc;stop-opacity:1" id="stop118" offset="1"/></radialGradient><linearGradient id="linearGradient4551" x1="24.664" x2="104.64" y1="123.045" y2="124" gradientTransform="translate(131.59072,18.462241)" gradientUnits="userSpaceOnUse" xlink:href="#XMLID_14_"/><filter id="filter4491" width="1.117" height="2.071" x="-.058" y="-.536"><feGaussianBlur id="feGaussianBlur4493" stdDeviation="2.399"/></filter><linearGradient id="linearGradient5292"><stop id="stop5294" offset="0" style="stop-color:#338000;stop-opacity:1"/><stop style="stop-color:#338000;stop-opacity:.49803922" id="stop5296" offset=".403"/><stop id="stop5298" offset="1" style="stop-color:#338000;stop-opacity:1"/></linearGradient><linearGradient id="linearGradient4724"><stop style="stop-color:#338000;stop-opacity:1" id="stop4726" offset="0"/><stop id="stop4732" offset=".483" style="stop-color:#338000;stop-opacity:.49803922"/><stop style="stop-color:#338000;stop-opacity:1" id="stop4728" offset="1"/></linearGradient><linearGradient id="linearGradient4714"><stop style="stop-color:#338000;stop-opacity:1" id="stop4716" offset="0"/><stop id="stop4722" offset="0" style="stop-color:#338000;stop-opacity:.53170735"/><stop style="stop-color:#338000;stop-opacity:1" id="stop4718" offset="1"/></linearGradient><radialGradient id="radialGradient4720" cx="185.721" cy="255.108" r="86.239" fx="185.721" fy="255.108" gradientTransform="matrix(1,0,0,1.2148088,0,-54.799401)" gradientUnits="userSpaceOnUse" xlink:href="#linearGradient4714"/><radialGradient id="radialGradient4730" cx="381.923" cy="209.123" r="106.658" fx="381.923" fy="209.123" gradientTransform="matrix(1,0,0,1.2,0,-41.824575)" gradientUnits="userSpaceOnUse" xlink:href="#linearGradient4724"/><radialGradient id="radialGradient4736" cx="381.923" cy="209.123" r="106.658" fx="381.923" fy="209.123" gradientTransform="matrix(1.0777696,0.5542841,-0.1923985,0.6153277,-17.633475,-124.05895)" gradientUnits="userSpaceOnUse" xlink:href="#linearGradient5292"/><filter id="filter5036" width="1.435" height="1.411" x="-.218" y="-.206"><feGaussianBlur id="feGaussianBlur5038" stdDeviation="4.901"/></filter><filter id="filter5116"><feGaussianBlur id="feGaussianBlur5118" stdDeviation="2.936"/></filter><filter id="filter5156"><feGaussianBlur id="feGaussianBlur5158" stdDeviation="5.032"/></filter></defs><metadata id="metadata6"/><g id="layer1"><g id="g5306"><path id="text4201" d="M 336.81941,337.11261 L 306.14568,337.11261 C 295.61123,315.30179 287.83091,294.59479 282.80472,274.99155 C 277.77848,255.30006 275.26537,235.78515 275.26538,216.44676 C 275.26537,197.10854 277.77848,177.54948 282.80472,157.76952 C 287.89977,137.90154 295.68008,117.15038 306.14568,95.515998 L 336.81941,95.515998 C 328.00623,116.44396 321.39641,136.9302 316.98993,156.97479 C 312.58332,176.93135 310.38004,196.66702 310.38009,216.18186 C 310.38004,235.69685 312.54889,255.47667 316.88665,275.52137 C 321.29313,295.56612 327.93738,316.09652 336.81941,337.11261 M 370.69478,337.11261 C 379.50786,316.09652 386.11768,295.56612 390.52426,275.52137 C 394.93078,255.47667 397.13405,235.69685 397.13409,216.18186 C 397.13405,196.66702 394.93078,176.93135 390.52426,156.97479 C 386.11768,136.9302 379.50786,116.44396 370.69478,95.515998 L 401.36851,95.515998 C 411.83402,117.15038 419.57991,137.90154 424.6062,157.76952 C 429.70119,177.54948 432.24873,197.10854 432.24881,216.44676 C 432.24873,235.78515 429.73562,255.30006 424.70947,274.99155 C 419.68319,294.59479 411.90287,315.30179 401.36851,337.11261 L 370.69478,337.11261" style="font-size:287.41552733999998281px;font-style:normal;font-weight:400;fill:url(#radialGradient4736);fill-opacity:1;stroke:none;stroke-width:1px;stroke-linecap:butt;stroke-linejoin:miter;stroke-opacity:1;font-family:Bitstream Vera Sans"/><g id="g5300"><path style="font-size:287.41552734px;font-style:normal;font-weight:400;fill:url(#radialGradient4720);fill-opacity:1;stroke:none;stroke-width:1px;stroke-linecap:butt;stroke-linejoin:miter;stroke-opacity:1;font-family:Bitstream Vera Sans" id="text4197" d="M 99.482579,150.3443 L 189.15959,150.3443 C 215.82398,150.34451 236.26676,156.28554 250.488,168.16743 C 264.80245,179.95613 271.95976,196.79687 271.95996,218.68969 C 271.95976,240.67635 264.80245,257.61064 250.488,269.49263 C 236.26676,281.28123 215.82398,287.17549 189.15959,287.17542 L 153.51333,287.17542 L 153.51333,359.87134 L 99.482579,359.87134 L 99.482579,150.3443 M 153.51333,189.49905 L 153.51333,248.02067 L 183.40567,248.02067 C 193.88424,248.02078 201.97715,245.49467 207.68442,240.44233 C 213.39142,235.29667 216.24499,228.04579 216.24514,218.68969 C 216.24499,209.33386 213.39142,202.12977 207.68442,197.07739 C 201.97715,192.02533 193.88424,189.49922 183.40567,189.49905 L 153.51333,189.49905"/><path style="font-size:287.41552733999998281px;font-style:normal;font-weight:400;fill:#f0f0f0;fill-opacity:.17948718;stroke:none;stroke-width:1px;stroke-linecap:butt;stroke-linejoin:miter;stroke-opacity:1;font-family:Bitstream Vera Sans;filter:url(#filter5156)" id="path4738" d="M 99.551098,149.36084 L 99.551098,210.86084 C 115.07217,202.08015 133.31294,194.6197 153.58235,188.92334 L 153.58235,188.51709 L 155.08235,188.51709 C 183.62074,180.65536 216.06232,176.20459 250.4886,176.20459 C 253.4872,176.20459 256.48982,176.26279 259.45735,176.32959 C 256.88241,172.99787 253.91793,169.94609 250.5511,167.17334 C 236.32986,155.29145 215.87174,149.36104 189.20735,149.36084 L 99.551098,149.36084 z M 99.551098,358.51709 L 99.551098,358.89209 L 100.20735,358.89209 C 99.987238,358.76873 99.770118,358.641 99.551098,358.51709 z"/><path style="font-size:287.41552733999998281px;font-style:normal;font-weight:400;fill:#112b00;fill-opacity:.28846154;stroke:none;stroke-width:1px;stroke-linecap:butt;stroke-linejoin:miter;stroke-opacity:1;font-family:Bitstream Vera Sans;filter:url(#filter5036);opacity:.71103896" id="path4831" d="M 99.54141,302.88102 L 99.54141,360.06852 L 153.57266,360.06852 L 153.57266,333.91227 C 133.08612,325.79082 114.80864,315.25912 99.54141,302.88102 z"/><path style="font-size:287.41552733999998281px;font-style:normal;font-weight:400;fill:#fff;fill-opacity:.08333334000000001;stroke:none;stroke-width:1px;stroke-linecap:butt;stroke-linejoin:miter;stroke-opacity:1;font-family:Bitstream Vera Sans;filter:url(#filter5116)" id="path5040" d="M 101.92563,146.94155 L 101.92563,147.50405 C 102.05073,147.3158 102.17375,147.12906 102.30063,146.94155 L 101.92563,146.94155 z M 101.92563,224.06655 L 101.92563,262.9103 C 122.29794,264.74825 140.93865,272.72724 155.95688,285.00405 L 155.95688,283.7853 L 191.61313,283.7853 C 214.0357,283.78536 232.05215,279.59028 245.67563,271.25405 C 235.19181,273.35776 224.1463,274.50405 212.73813,274.50405 C 163.91299,274.50404 121.73239,253.87399 101.92563,224.06655 z"/></g></g><g style="overflow:visible" id="g12583" transform="matrix(3.5608696,0,0,3.6394094,-431.58907,-163.33123)"><path style="opacity:.7;fill:#000;fill-opacity:1;fill-rule:evenodd;stroke:none;stroke-width:3;stroke-linecap:round;stroke-linejoin:round;stroke-miterlimit:4;stroke-dasharray:none;stroke-opacity:1;filter:url(#filter4491)" id="path4102" d="M 124,117.875 C 124,120.84353 101.95002,123.25 74.75,123.25 C 47.549976,123.25 25.5,120.84353 25.5,117.875 C 25.5,114.90647 47.549976,112.5 74.75,112.5 C 101.95002,112.5 124,114.90647 124,117.875 z" transform="matrix(0.8121827,0,-3.3465935e-8,0.5581395,134.88006,74.671548)"/><path id="path120" d="M 190.39472,73.462241 L 155.75372,133.46224 C 154.68272,135.31824 154.68272,137.60624 155.75372,139.46224 C 156.82572,141.31824 158.80672,142.46224 160.94972,142.46224 L 230.23172,142.46224 C 232.37572,142.46224 234.35572,141.31824 235.42772,139.46224 C 236.49872,137.60624 236.49872,135.31824 235.42772,133.46224 L 200.78672,73.462241 C 199.71472,71.606241 197.73372,70.462241 195.59072,70.462241 C 193.44772,70.462241 191.46672,71.605241 190.39472,73.462241 z" style="fill:url(#linearGradient4551);fill-opacity:1"/><path id="path129" d="M 192.12772,74.462241 L 157.48672,134.46224 C 157.13672,135.06624 156.95272,135.75824 156.95272,136.46224 C 156.95272,137.16624 157.13772,137.85824 157.48672,138.46224 C 158.19972,139.69524 159.52672,140.46224 160.95072,140.46224 L 230.23172,140.46224 C 231.65572,140.46224 232.98372,139.69524 233.69572,138.46224 C 234.40772,137.22924 234.40772,135.69524 233.69572,134.46224 L 199.05472,74.462241 C 198.34272,73.229241 197.01472,72.462241 195.59072,72.462241 C 194.16672,72.462241 192.83872,73.228241 192.12772,74.462241 z" style="fill:url(#radialGradient4553)"/><path id="path140" d="M 193.85872,82.462241 L 166.14672,130.46224 C 165.78972,131.08124 165.78972,131.84324 166.14672,132.46224 C 166.50372,133.08124 167.16472,133.46224 167.87872,133.46224 L 223.30472,133.46224 C 224.01972,133.46224 224.67972,133.08124 225.03672,132.46224 C 225.39272,131.84324 225.39272,131.08124 225.03672,130.46224 L 197.32372,82.462241 C 196.96672,81.843241 196.30572,81.462241 195.59172,81.462241 C 194.87772,81.462241 194.21572,81.843241 193.85872,82.462241 z" style="fill:url(#linearGradient4555)"/><path id="path162" d="M 193.12672,129.49741 C 192.43606,128.85691 192.09072,128.03207 192.09072,127.02524 C 192.09072,126.06274 192.43138,125.22857 193.11506,124.52157 C 193.79638,123.81574 194.63988,123.46224 195.64206,123.46224 C 196.62788,123.46224 197.44922,123.82157 198.10606,124.53791 C 198.76172,125.25541 199.09072,126.08491 199.09072,127.02641 C 199.09072,127.96907 198.74422,128.77641 198.05472,129.45191 C 197.36288,130.12507 196.51706,130.46224 195.51138,130.46224 C 194.61188,130.46224 193.81738,130.14024 193.12672,129.49741 z" style="fill:url(#linearGradient4557)"/><path id="path5220" d="M 195.59072,72.462241 C 194.16672,72.462241 192.83297,73.228241 192.12197,74.462241 L 171.34072,110.46224 C 177.78232,114.23077 185.63608,117.22732 194.30947,118.96224 C 205.38228,121.17712 215.98178,120.97529 224.65322,118.83724 L 199.05947,74.462241 C 198.34747,73.229241 197.01472,72.462241 195.59072,72.462241 z" style="opacity:.2;fill:#fff;fill-opacity:1"/><path id="path2778" d="M 198.89981,97.571616 C 199.02708,96.040368 199.09072,95.001303 199.09072,94.399741 C 199.09072,91.829432 197.88163,90.462241 195.59072,90.462241 C 193.29981,90.462241 192.09072,91.774745 192.09072,94.399741 C 192.09072,95.329428 192.15436,96.368493 192.28163,97.571616 L 194.06345,118.46224 L 197.11799,118.46224 L 198.89981,97.571616" style="font-size:57.83294296px;font-style:normal;font-variant:normal;font-weight:400;font-stretch:normal;text-align:start;line-height:125%;writing-mode:lr-tb;text-anchor:start;fill:url(#linearGradient4559);fill-opacity:1;stroke:none;stroke-width:1px;stroke-linecap:butt;stroke-linejoin:miter;stroke-opacity:1;font-family:Bitstream Charter"/></g></g></svg>